<svg id="Layer_1" data-name="Layer 1" xmlns="http://www.w3.org/2000/svg" viewBox="0 0 368 368"><defs><style>.cls-1{fill:#fff;}.cls-2{fill:#8c8c8c;}.cls-11,.cls-3,.cls-4,.cls-6,.cls-7,.cls-8,.cls-9{fill:none;}.cls-3,.cls-4,.cls-6,.cls-7{stroke:#8c8c8c;stroke-miterlimit:10;}.cls-4{stroke-linecap:round;}.cls-11,.cls-4{stroke-width:3px;}.cls-5{fill:#88d3ed;}.cls-6{stroke-dasharray:4.08 3.06;}.cls-7{stroke-dasharray:4.02 3.02;}.cls-8,.cls-9{stroke:#666;}.cls-11,.cls-8{stroke-linejoin:bevel;}.cls-10{fill:#666;}.cls-11{stroke:#fff;}</style></defs><title>D22_OverView</title><path class="cls-1" d="M126.7,367.5a24.34,24.34,0,0,1-24.2-24.42V25.36A24.78,24.78,0,0,1,127.14.5H256.86A24.78,24.78,0,0,1,281.5,25.36V343.08a24.34,24.34,0,0,1-24.2,24.42Z"/><path class="cls-2" d="M256.86,1A24.28,24.28,0,0,1,281,25.36V343.08A23.84,23.84,0,0,1,257.3,367H126.7A23.84,23.84,0,0,1,103,343.08V25.36A24.28,24.28,0,0,1,127.14,1H256.86m0-1H127.14A25.25,25.25,0,0,0,102,25.36V343.08A24.81,24.81,0,0,0,126.7,368H257.3A24.81,24.81,0,0,0,282,343.08V25.36A25.25,25.25,0,0,0,256.86,0Z"/><path class="cls-3" d="M255.21,3.5H128.78A23.42,23.42,0,0,0,105.5,27.06V340.94a23.42,23.42,0,0,0,23.29,23.56H255.21a23.42,23.42,0,0,0,23.29-23.56V27.06A23.42,23.42,0,0,0,255.21,3.5Z"/><rect class="cls-2" x="101" y="48" width="1" height="13"/><rect class="cls-2" x="101" y="110" width="1" height="27"/><rect class="cls-2" x="282" y="85" width="1" height="43"/><rect class="cls-2" x="101" y="76" width="1" height="27"/><line class="cls-4" x1="169.48" y1="350.5" x2="217" y2="350.5"/><path class="cls-5" d="M239.53,11a3.36,3.36,0,0,0-2.8.86,2.92,2.92,0,0,0-.59,2.15,7.78,7.78,0,0,1-.28,2.37,8.75,8.75,0,0,1-2.37,4.33,8.2,8.2,0,0,1-4.34,2,22.21,22.21,0,0,1-4.78.38H159.81a22.2,22.2,0,0,1-4.78-.38,8.2,8.2,0,0,1-4.34-2,8.75,8.75,0,0,1-2.37-4.33A7.78,7.78,0,0,1,148,14a2.79,2.79,0,0,0-.59-2.1,3.39,3.39,0,0,0-2.8-.92H128a15.05,15.05,0,0,0-15,15.07V340.93A15.05,15.05,0,0,0,128,356H256a15.05,15.05,0,0,0,15-15.07V26.07A15.05,15.05,0,0,0,256,11Z"/><polyline class="cls-3" points="270.5 354.5 270.5 356.5 268.5 356.5"/><line class="cls-6" x1="265.44" y1="356.5" x2="117.03" y2="356.5"/><polyline class="cls-3" points="115.5 356.5 113.5 356.5 113.5 354.5"/><line class="cls-7" x1="113.5" y1="351.48" x2="113.5" y2="15.01"/><polyline class="cls-3" points="113.5 13.5 113.5 11.5 115.5 11.5"/><line class="cls-6" x1="118.56" y1="11.5" x2="266.97" y2="11.5"/><polyline class="cls-3" points="268.5 11.5 270.5 11.5 270.5 13.5"/><line class="cls-7" x1="270.5" y1="16.52" x2="270.5" y2="352.99"/><line class="cls-8" x1="113.5" y1="172" x2="113.5" y2="183"/><line class="cls-8" x1="270.5" y1="172" x2="270.5" y2="183"/><line class="cls-9" x1="269" y1="177.5" x2="115" y2="177.5"/><path class="cls-10" d="M262.91,173.18a.45.45,0,0,0,.14.62l5.81,3.7L263,181.2a.45.45,0,0,0,.48.76l6.4-4.08a.45.45,0,0,0,0-.76l-6.4-4.08a.45.45,0,0,0-.62.14Z"/><path class="cls-10" d="M121.09,173.18a.45.45,0,0,1-.14.62l-5.81,3.7,5.81,3.7a.45.45,0,0,1-.48.76l-6.4-4.08a.45.45,0,0,1,0-.76l6.4-4.08a.45.45,0,0,1,.62.14Z"/><line class="cls-8" x1="186" y1="356.5" x2="197" y2="356.5"/><line class="cls-11" x1="186" y1="11.5" x2="197" y2="11.5"/><line class="cls-8" x1="186" y1="11.5" x2="197" y2="11.5"/><line class="cls-9" x1="191.5" y1="13" x2="191.5" y2="355"/><path class="cls-10" d="M187.18,19.09a.45.45,0,0,0,.62-.14l3.7-5.81L195.2,19a.45.45,0,1,0,.76-.48l-4.08-6.4a.45.45,0,0,0-.76,0L187,18.47a.45.45,0,0,0,.14.62Z"/><path class="cls-10" d="M187.18,348.91a.45.45,0,0,1,.62.14l3.7,5.81,3.7-5.81a.45.45,0,1,1,.76.48l-4.08,6.4a.45.45,0,0,1-.76,0l-4.08-6.4a.45.45,0,0,1,.14-.62Z"/></svg>