<?xml version="1.0" encoding="utf-8"?>
<!-- Generator: Adobe Illustrator 21.1.0, SVG Export Plug-In . SVG Version: 6.00 Build 0)  -->
<svg version="1.1" id="Layer_1" xmlns="http://www.w3.org/2000/svg" xmlns:xlink="http://www.w3.org/1999/xlink" x="0px" y="0px"
	 viewBox="0 0 388 235" style="enable-background:new 0 0 388 235;" xml:space="preserve">
<style type="text/css">
	.st0{fill:#333333;}
	.st1{fill:#999999;}
	.st2{fill:#B3B3B3;}
	.st3{fill:#CCCCCC;}
	.st4{fill:none;stroke:#333333;stroke-miterlimit:10;}
</style>
<title>TypographyHero</title>
<g id="TypographyHero_Image">
	<path class="st0" d="M213.3,109.1c0,1.1,1,2,2.2,2c0,0,0.1,0,0.1,0c1.6,0,2.4-0.9,2.4-2.7V98.3h1.8v10.2c0,2.7-1.6,4.3-4.1,4.3
		c-2,0.2-3.8-1.3-4-3.3c0-0.1,0-0.2,0-0.3H213.3z"/>
	<path class="st0" d="M222,107.3c0-3.2,1.8-5.2,4.7-5.2s4.7,2,4.7,5.2s-1.8,5.2-4.7,5.2S222,110.5,222,107.3z M229.7,107.3
		c0-2.3-1.1-3.7-3-3.7s-3,1.4-3,3.7s1.1,3.7,3,3.7S229.7,109.7,229.7,107.3L229.7,107.3z"/>
	<path class="st0" d="M233.6,98.3h1.7v5.6l0,0c0.6-1.2,1.9-1.9,3.2-1.8c1.9-0.1,3.5,1.4,3.6,3.3c0,0.2,0,0.3,0,0.5v6.5h-1.7v-6.2
		c0-1.6-0.8-2.6-2.4-2.6c-1.5-0.1-2.7,1.1-2.8,2.5c0,0.1,0,0.3,0,0.4v5.8h-1.7L233.6,98.3z"/>
	<path class="st0" d="M244.7,102.3h1.6v1.7l0,0c0.6-1.2,1.9-1.9,3.2-1.8c2.2,0,3.5,1.4,3.5,3.7v6.5h-1.7v-6.2c0-1.6-0.8-2.5-2.4-2.5
		c-1.4,0-2.6,1.1-2.7,2.5c0,0.1,0,0.3,0,0.4v5.9h-1.7L244.7,102.3z"/>
	<path class="st0" d="M268.2,108.4h-5.6l-1.4,4h-1.9l5.2-14.1h1.7l5.2,14.1h-1.9L268.2,108.4z M263.1,106.9h4.6l-2.3-6.4h-0.1
		L263.1,106.9z"/>
	<path class="st0" d="M282.5,107.3c0,3.1-1.8,5.2-4.3,5.2c-1.3,0.1-2.6-0.6-3.2-1.8l0,0v5h-1.7v-13.5h1.6v1.7l0,0
		c0.7-1.1,2-1.8,3.3-1.8C280.7,102.2,282.5,104.2,282.5,107.3z M280.7,107.3c0-2.2-1.2-3.7-2.9-3.7s-2.9,1.5-2.9,3.7
		s1.2,3.7,2.9,3.7S280.7,109.6,280.7,107.3L280.7,107.3z"/>
	<path class="st0" d="M293.9,107.3c0,3.1-1.8,5.2-4.3,5.2c-1.3,0.1-2.6-0.6-3.2-1.8l0,0v5h-1.7v-13.5h1.6v1.7l0,0
		c0.7-1.1,2-1.8,3.3-1.8C292.1,102.2,293.9,104.2,293.9,107.3z M292.1,107.3c0-2.2-1.2-3.7-2.9-3.7s-2.9,1.5-2.9,3.7
		s1.2,3.7,2.9,3.7S292.1,109.6,292.1,107.3z"/>
	<path class="st0" d="M296.1,98.3h1.7v14.1h-1.7V98.3z"/>
	<path class="st0" d="M308.9,109.5c-0.3,1.8-2,3-4.2,3c-2.9,0-4.7-2-4.7-5.1s1.8-5.2,4.6-5.2s4.4,1.9,4.4,5v0.6h-7.3v0.1
		c-0.1,1.6,1,3,2.6,3.1c0.1,0,0.3,0,0.4,0c1.1,0.1,2.1-0.5,2.5-1.5H308.9z M301.7,106.5h5.5c0.1-1.5-1-2.7-2.5-2.8
		c-0.1,0-0.2,0-0.2,0C303,103.7,301.7,104.9,301.7,106.5C301.7,106.5,301.7,106.5,301.7,106.5L301.7,106.5z"/>
	<path class="st0" d="M314.7,102.2c2.1,0,3.7,1.2,3.7,2.9h-1.6c-0.1-0.9-0.9-1.5-2.2-1.5s-2.1,0.6-2.1,1.5c0,0.7,0.5,1.1,1.7,1.4
		l1.6,0.4c2,0.5,2.8,1.2,2.8,2.7c0,1.8-1.7,3-4,3s-3.8-1.2-4-3h1.7c0.2,1,1,1.6,2.4,1.6s2.2-0.6,2.2-1.5c0-0.7-0.4-1.1-1.6-1.4
		l-1.8-0.5c-1.8-0.5-2.7-1.4-2.7-2.7C310.9,103.4,312.5,102.2,314.7,102.2z"/>
	<path class="st0" d="M329.2,109.5c-0.3,1.8-2,3-4.2,3c-2.9,0-4.7-2-4.7-5.1s1.8-5.2,4.6-5.2s4.4,1.9,4.4,5v0.6H322v0.1
		c-0.1,1.6,1,3,2.6,3.1c0.1,0,0.3,0,0.4,0c1.1,0.1,2.1-0.5,2.5-1.5H329.2z M322,106.5h5.5c0.1-1.5-1-2.7-2.5-2.8c-0.1,0-0.2,0-0.2,0
		c-1.5,0-2.8,1.2-2.9,2.7C322,106.4,322,106.5,322,106.5L322,106.5z"/>
	<path class="st0" d="M339.9,109.5c-0.3,1.8-2,3-4.2,3c-2.9,0-4.7-2-4.7-5.1s1.8-5.2,4.6-5.2s4.4,1.9,4.4,5v0.6h-7.3v0.1
		c-0.1,1.6,1,3,2.6,3.1c0.1,0,0.3,0,0.4,0c1.1,0.1,2.1-0.5,2.5-1.5H339.9z M332.7,106.5h5.5c0.1-1.5-1-2.7-2.5-2.8
		c-0.1,0-0.2,0-0.2,0C334,103.7,332.7,104.9,332.7,106.5C332.7,106.5,332.7,106.5,332.7,106.5L332.7,106.5z"/>
	<path class="st0" d="M341.6,107.3c0-3.1,1.8-5.2,4.3-5.2c1.3-0.1,2.6,0.6,3.2,1.8l0,0v-5.6h1.7v14.1h-1.6v-1.7l0,0
		c-0.7,1.2-1.9,1.9-3.3,1.8C343.4,112.5,341.6,110.4,341.6,107.3z M343.3,107.3c0,2.2,1.2,3.7,2.9,3.7s2.9-1.5,2.9-3.7
		s-1.2-3.7-2.9-3.7S343.3,105.1,343.3,107.3L343.3,107.3z"/>
	<path class="st0" d="M4.5,108.6c0.2,1.5,1.6,2.5,3.6,2.5s3.3-1,3.3-2.4c0-1.2-0.8-1.9-2.7-2.4l-1.8-0.5c-2.6-0.7-3.8-1.8-3.8-3.7
		c0-2.3,2-4,5-4s4.8,1.7,4.9,4h-1.8c-0.2-1.5-1.4-2.4-3.2-2.4s-3.1,1-3.1,2.4c0,1.1,0.8,1.7,2.7,2.2l1.5,0.4
		c2.9,0.7,4.1,1.9,4.1,3.9c0,2.6-2,4.2-5.3,4.2c-3,0-5.1-1.6-5.2-4.1L4.5,108.6z"/>
	<path class="st0" d="M15.7,112.5V98.4h8.6v1.6h-6.8v4.8h6.2v1.6h-6.2v6.1L15.7,112.5z"/>
	<path class="st0" d="M36.2,98.4c2.5,0,4.5,2,4.5,4.5c0,2.5-2,4.5-4.5,4.5h-3.3v5h-1.8V98.4H36.2z M32.9,105.9h2.8
		c2,0,3.2-1.1,3.2-3s-1.1-3-3.2-3h-2.8V105.9z"/>
	<path class="st0" d="M42.9,102.3h1.6v1.7l0,0c0.3-1.1,1.4-1.8,2.5-1.8c0.2,0,0.5,0,0.7,0.1v1.7c-0.3-0.1-0.6-0.1-0.9-0.1
		c-1.2,0-2.2,0.9-2.2,2.1c0,0.1,0,0.2,0,0.3v6.2h-1.7L42.9,102.3z"/>
	<path class="st0" d="M48.4,107.4c0-3.2,1.8-5.2,4.7-5.2s4.7,2,4.7,5.2s-1.8,5.2-4.7,5.2S48.4,110.6,48.4,107.4z M56.1,107.4
		c0-2.3-1.1-3.7-3-3.7s-3,1.4-3,3.7s1.1,3.7,3,3.7S56.1,109.7,56.1,107.4z"/>
	<path class="st0" d="M69.4,98.4c4.2,0,6.7,2.6,6.7,7s-2.5,7.1-6.7,7.1h-4.7V98.4H69.4z M66.4,110.9h2.9c3.2,0,5-2,5-5.4
		s-1.8-5.5-5-5.5h-2.9L66.4,110.9z"/>
	<path class="st0" d="M78.3,99.6c0-0.6,0.5-1.1,1-1.1c0.6,0,1.1,0.5,1.1,1c0,0.6-0.5,1.1-1,1.1c0,0,0,0,0,0
		C78.8,100.6,78.3,100.2,78.3,99.6z M78.5,102.3h1.7v10.2h-1.7V102.3z"/>
	<path class="st0" d="M86.5,102.2c2.1,0,3.7,1.2,3.7,2.9h-1.6c-0.1-0.9-0.9-1.5-2.2-1.5s-2.1,0.6-2.1,1.5c0,0.7,0.5,1.1,1.7,1.4
		l1.6,0.4c2.1,0.5,2.8,1.2,2.8,2.7c0,1.8-1.7,3-4,3s-3.8-1.2-4-3h1.7c0.2,1,1,1.6,2.4,1.6s2.2-0.6,2.2-1.5c0-0.7-0.4-1.1-1.6-1.4
		l-1.8-0.5c-1.8-0.5-2.7-1.4-2.7-2.7C82.7,103.5,84.3,102.2,86.5,102.2z"/>
	<path class="st0" d="M101.9,107.4c0,3.1-1.8,5.2-4.3,5.2c-1.3,0.1-2.6-0.6-3.2-1.8l0,0v5h-1.7v-13.5h1.6v1.7l0,0
		c0.7-1.1,2-1.8,3.3-1.8C100.1,102.2,101.9,104.3,101.9,107.4z M100.1,107.4c0-2.2-1.2-3.7-2.9-3.7s-2.9,1.5-2.9,3.7
		s1.2,3.7,2.9,3.7S100.1,109.6,100.1,107.4z"/>
	<path class="st0" d="M104.1,98.4h1.7v14.1h-1.7V98.4z"/>
	<path class="st0" d="M108,109.6c0-1.8,1.3-2.8,3.8-2.9l2.8-0.2v-0.8c0-1.2-0.8-1.9-2.3-1.9c-1-0.1-2,0.5-2.2,1.5h-1.6
		c0-1.7,1.7-3,3.9-3c2.4,0,4,1.3,4,3.3v7h-1.6v-1.8l0,0c-0.7,1.2-1.9,1.9-3.3,1.9C109.3,112.6,108,111.4,108,109.6z M114.7,108.6
		v-0.8L112,108c-1.5,0.1-2.3,0.6-2.3,1.6s0.8,1.6,2.1,1.6c1.5,0.1,2.7-1,2.8-2.4C114.6,108.7,114.6,108.7,114.7,108.6L114.7,108.6z"
		/>
	<path class="st0" d="M119,116.2v-1.4c0.2,0,0.4,0,0.7,0c0.9,0,1.5-0.5,1.9-1.6l0.2-0.7l-3.8-10.1h1.8l2.8,8.5l0,0l2.8-8.5h1.8
		l-4,10.9c-0.9,2.4-1.7,3.1-3.6,3.1C119.5,116.3,119.2,116.3,119,116.2z"/>
	<path class="st0" d="M136.7,115.2c-1.8-2.5-2.8-5.5-2.6-8.6c-0.2-3,0.8-5.9,2.7-8.2h1.4c-0.8,1-2.4,3.7-2.4,8.2c0,3,0.8,6,2.4,8.6
		H136.7z"/>
	<path class="st0" d="M144.7,98.2c2.5,0,4.5,1.7,4.5,3.9c0,1.6-0.7,2.7-3.1,5.2l-3.6,3.7l0,0h6.9v1.6h-9.3v-1.2l5-5.2
		c1.9-2,2.4-2.7,2.4-3.9c-0.1-1.4-1.4-2.5-2.8-2.4c-1.5-0.1-2.8,1.1-2.9,2.7c0,0,0,0.1,0,0.1H140c0.1-2.4,2.1-4.3,4.5-4.3
		C144.6,98.2,144.6,98.2,144.7,98.2z"/>
	<path class="st0" d="M151.6,105.4c0-4.4,1.9-7.3,5.2-7.3s5.2,2.8,5.2,7.3s-1.9,7.3-5.2,7.3S151.6,109.9,151.6,105.4z M160.2,105.4
		c0-3.5-1.2-5.7-3.4-5.7s-3.4,2.3-3.4,5.7s1.2,5.8,3.4,5.8S160.2,109,160.2,105.4z"/>
	<path class="st0" d="M173.6,107.4c0,3.1-1.8,5.2-4.3,5.2c-1.3,0.1-2.6-0.6-3.2-1.8l0,0v5h-1.7v-13.5h1.6v1.7l0,0
		c0.7-1.1,2-1.8,3.3-1.8C171.9,102.2,173.6,104.3,173.6,107.4z M171.9,107.4c0-2.2-1.2-3.7-2.9-3.7s-2.9,1.5-2.9,3.7
		s1.2,3.7,2.9,3.7S171.9,109.6,171.9,107.4z"/>
	<path class="st0" d="M178,99.9v2.4h2v1.4h-2v6c0,0.9,0.4,1.3,1.3,1.3c0.2,0,0.5,0,0.7,0v1.4c-0.4,0.1-0.7,0.1-1.1,0.1
		c-1.9,0-2.6-0.8-2.6-2.7v-6.1h-1.5v-1.4h1.5v-2.5H178z"/>
	<path class="st0" d="M183.8,106.6c0-4.5-1.6-7.2-2.4-8.2h1.4c1.9,2.3,2.9,5.2,2.7,8.2c0.1,3.1-0.8,6.1-2.6,8.6h-1.5
		C183,112.6,183.9,109.7,183.8,106.6z"/>
	<path class="st1" d="M213.4,75.9c0,1.2,1,2.2,2.2,2.1c0,0,0.1,0,0.1,0c1.6,0,2.5-1,2.5-2.8V64.6h1.9v10.7c0,2.8-1.6,4.5-4.4,4.5
		c-2.5,0-4.2-1.6-4.2-3.8H213.4z"/>
	<path class="st1" d="M222.6,74.1c0-3.3,1.9-5.4,4.9-5.4s4.9,2.1,4.9,5.4s-1.9,5.4-4.9,5.4S222.6,77.4,222.6,74.1z M230.6,74.1
		c0-2.4-1.2-3.9-3.1-3.9s-3.1,1.4-3.1,3.9s1.2,3.9,3.1,3.9S230.6,76.5,230.6,74.1z"/>
	<path class="st1" d="M234.7,64.6h1.8v5.9l0,0c0.7-1.2,2-2,3.4-1.8c2.3,0,3.8,1.6,3.8,4v6.8h-1.8v-6.5c0-1.7-0.9-2.7-2.5-2.7
		c-1.5-0.1-2.8,1.1-2.9,2.6c0,0.1,0,0.3,0,0.4v6.1h-1.8L234.7,64.6z"/>
	<path class="st1" d="M246.3,68.8h1.7v1.7l0,0c0.7-1.2,2-2,3.4-1.8c2.3,0,3.7,1.5,3.7,3.9v6.8h-1.8v-6.5c0-1.7-0.8-2.7-2.5-2.7
		c-1.5,0-2.7,1.1-2.8,2.6c0,0.1,0,0.3,0,0.4v6.2h-1.8V68.8z"/>
	<path class="st1" d="M270.8,75.2h-5.9l-1.5,4.2h-1.9l5.5-14.8h1.8l5.5,14.8h-1.9L270.8,75.2z M265.5,73.6h4.8l-2.4-6.8h-0.1
		L265.5,73.6z"/>
	<path class="st1" d="M285.8,74.1c0,3.3-1.8,5.4-4.5,5.4c-1.4,0.1-2.7-0.6-3.4-1.8l0,0V83H276V68.8h1.7v1.7l0,0
		c0.8-1.2,2.1-1.9,3.5-1.8C284,68.6,285.8,70.8,285.8,74.1z M284,74.1c0-2.3-1.2-3.9-3.1-3.9s-3.1,1.6-3.1,3.9s1.2,3.9,3.1,3.9
		S284,76.4,284,74.1L284,74.1z"/>
	<path class="st1" d="M297.7,74.1c0,3.3-1.8,5.4-4.5,5.4c-1.4,0.1-2.7-0.6-3.4-1.8l0,0V83H288V68.8h1.7v1.7l0,0
		c0.8-1.2,2.1-1.9,3.5-1.8C295.9,68.6,297.7,70.8,297.7,74.1z M295.9,74.1c0-2.3-1.2-3.9-3.1-3.9s-3.1,1.6-3.1,3.9s1.2,3.9,3.1,3.9
		S295.9,76.4,295.9,74.1z"/>
	<path class="st1" d="M300,64.6h1.8v14.8H300V64.6z"/>
	<path class="st1" d="M313.4,76.4c-0.3,1.8-2.2,3.2-4.5,3.2c-3,0-4.9-2.1-4.9-5.4s1.9-5.5,4.8-5.5s4.7,2,4.7,5.2v0.7h-7.7v0.1
		c-0.2,1.6,1,3.1,2.6,3.3c0.2,0,0.3,0,0.5,0c1.1,0.1,2.2-0.5,2.6-1.6L313.4,76.4z M305.9,73.2h5.8c0.1-1.5-1-2.9-2.6-3
		c-0.1,0-0.2,0-0.2,0C307.2,70.2,305.9,71.5,305.9,73.2C305.8,73.1,305.8,73.1,305.9,73.2z"/>
	<path class="st1" d="M319.5,68.7c2.2,0,3.9,1.3,3.9,3.1h-1.7c-0.1-1-1-1.6-2.3-1.6s-2.2,0.6-2.2,1.5c0,0.7,0.6,1.2,1.8,1.5l1.6,0.4
		c2.2,0.5,2.9,1.3,2.9,2.8c0,1.8-1.8,3.1-4.2,3.1c-2.3,0-4-1.2-4.2-3.1h1.8c0.2,1.1,1,1.7,2.5,1.7s2.3-0.6,2.3-1.5
		c0-0.7-0.4-1.1-1.6-1.4l-1.9-0.5c-1.9-0.5-2.8-1.4-2.8-2.9C315.5,69.9,317.1,68.7,319.5,68.7z"/>
	<path class="st1" d="M334.6,76.4c-0.3,1.8-2.2,3.2-4.5,3.2c-3,0-4.9-2.1-4.9-5.4s1.9-5.5,4.8-5.5s4.7,2,4.7,5.2v0.7h-7.7v0.1
		c-0.2,1.6,1,3.1,2.7,3.3c0.1,0,0.3,0,0.4,0c1.1,0.1,2.2-0.5,2.6-1.6H334.6z M327.1,73.2h5.8c0.1-1.5-1-2.9-2.6-3
		c-0.1,0-0.2,0-0.2,0C328.5,70.2,327.1,71.5,327.1,73.2C327.1,73.1,327.1,73.1,327.1,73.2z"/>
	<path class="st1" d="M345.8,76.4c-0.3,1.8-2.2,3.2-4.5,3.2c-3,0-4.9-2.1-4.9-5.4s1.9-5.5,4.8-5.5s4.7,2,4.7,5.2v0.7h-7.7v0.1
		c-0.2,1.6,1,3.1,2.7,3.3c0.1,0,0.3,0,0.4,0c1.1,0.1,2.2-0.6,2.6-1.6H345.8z M338.3,73.2h5.8c0.1-1.5-1-2.9-2.6-3
		c-0.1,0-0.2,0-0.2,0C339.6,70.2,338.3,71.5,338.3,73.2C338.3,73.1,338.3,73.1,338.3,73.2z"/>
	<path class="st1" d="M347.5,74.1c0-3.3,1.9-5.4,4.5-5.4c1.4-0.1,2.7,0.6,3.4,1.8l0,0v-5.9h1.8v14.8h-1.7v-1.8l0,0
		c-0.7,1.2-2,2-3.5,1.9C349.4,79.5,347.5,77.3,347.5,74.1z M349.4,74.1c0,2.3,1.2,3.9,3.1,3.9s3.1-1.6,3.1-3.9s-1.2-3.9-3.1-3.9
		S349.4,71.8,349.4,74.1L349.4,74.1z"/>
	<path class="st1" d="M137.7,82.2c-1.9-2.6-2.9-5.8-2.8-9c-0.2-3.1,0.9-6.2,2.9-8.6h1.5c-0.9,1-2.6,3.9-2.6,8.6
		c-0.1,3.2,0.8,6.3,2.5,9L137.7,82.2z"/>
	<path class="st1" d="M146.1,64.4c2.6,0,4.7,1.8,4.7,4.1c0,1.7-0.8,2.9-3.2,5.4l-3.8,3.9l0,0h7.2v1.6h-9.8v-1.2l5.2-5.5
		c2-2.1,2.5-2.9,2.5-4.1c-0.1-1.5-1.4-2.6-3-2.5c-1.6-0.1-3,1.2-3,2.8c0,0,0,0.1,0,0.1h-1.8c0-2.5,2.1-4.6,4.7-4.5
		C145.9,64.4,146,64.4,146.1,64.4z"/>
	<path class="st1" d="M157.4,66.6L157.4,66.6l-3.9,2.8v-1.9l3.9-2.8h1.8v14.8h-1.8L157.4,66.6z"/>
	<path class="st1" d="M173,74.1c0,3.3-1.8,5.4-4.5,5.4c-1.4,0.1-2.7-0.6-3.4-1.8l0,0V83h-1.8V68.8h1.7v1.7l0,0
		c0.7-1.2,2.1-1.9,3.4-1.8C171.2,68.6,173,70.8,173,74.1z M171.2,74.1c0-2.3-1.2-3.9-3.1-3.9s-3.1,1.6-3.1,3.9s1.2,3.9,3.1,3.9
		S171.2,76.4,171.2,74.1L171.2,74.1z"/>
	<path class="st1" d="M177.6,66.2v2.6h2.1v1.5h-2.1v6.3c0,1,0.4,1.4,1.3,1.4c0.2,0,0.5,0,0.7-0.1v1.5c-0.4,0.1-0.8,0.1-1.1,0.1
		c-2,0-2.7-0.8-2.7-2.8v-6.4h-1.6v-1.5h1.6v-2.6H177.6z"/>
	<path class="st1" d="M183.7,73.2c0-4.7-1.7-7.6-2.6-8.6h1.5c2,2.4,3.1,5.5,2.9,8.6c0.1,3.2-0.8,6.4-2.8,9h-1.6
		C182.9,79.6,183.8,76.4,183.7,73.2z"/>
	<path class="st2" d="M213.5,45.7c0,1.3,1.1,2.3,2.4,2.2c0,0,0.1,0,0.1,0c1.7,0,2.6-1,2.6-2.9V33.9h1.9V45c0,2.9-1.7,4.7-4.6,4.7
		c-2.6,0-4.4-1.7-4.4-4L213.5,45.7z"/>
	<path class="st2" d="M223,43.8c0-3.5,2-5.7,5.2-5.7s5.2,2.2,5.2,5.7s-2,5.7-5.2,5.7S223,47.2,223,43.8z M231.5,43.8
		c0-2.5-1.2-4-3.3-4s-3.3,1.5-3.3,4s1.2,4,3.3,4S231.5,46.3,231.5,43.8L231.5,43.8z"/>
	<path class="st2" d="M235.7,33.9h1.9V40l0,0c0.7-1.3,2.1-2.1,3.6-1.9c2.4,0,3.9,1.7,3.9,4.2v7.1h-1.9v-6.8c0-1.8-0.9-2.8-2.6-2.8
		c-1.6-0.1-2.9,1.2-3,2.8c0,0.1,0,0.3,0,0.4v6.4h-1.9L235.7,33.9z"/>
	<path class="st2" d="M247.8,38.2h1.8V40l0,0c0.7-1.3,2.1-2.1,3.6-1.9c2.4,0,3.9,1.6,3.9,4.1v7.2h-1.8v-6.8c0-1.8-0.8-2.8-2.6-2.8
		c-1.6,0-2.9,1.2-2.9,2.7c0,0.1,0,0.3,0,0.4v6.5h-1.9L247.8,38.2z"/>
	<path class="st2" d="M273.5,44.9h-6.2l-1.6,4.4h-2l5.7-15.5h1.9l5.6,15.5h-2L273.5,44.9z M267.8,43.3h5l-2.5-7.1h-0.1L267.8,43.3z"
		/>
	<path class="st2" d="M289.1,43.8c0,3.4-1.9,5.7-4.7,5.7c-1.5,0.1-2.8-0.7-3.6-1.9l0,0v5.5h-1.9V38.2h1.8V40l0,0
		c0.8-1.2,2.2-2,3.6-1.9C287.1,38.1,289.1,40.4,289.1,43.8z M287.2,43.8c0-2.4-1.3-4-3.2-4s-3.2,1.6-3.2,4s1.3,4,3.2,4
		S287.2,46.2,287.2,43.8L287.2,43.8z"/>
	<path class="st2" d="M301.5,43.8c0,3.4-1.9,5.7-4.7,5.7c-1.5,0.1-2.8-0.7-3.6-1.9l0,0v5.5h-1.9V38.2h1.8V40l0,0
		c0.8-1.2,2.2-2,3.6-1.9C299.6,38.1,301.5,40.4,301.5,43.8z M299.6,43.8c0-2.4-1.3-4-3.2-4s-3.2,1.6-3.2,4s1.3,4,3.2,4
		S299.6,46.2,299.6,43.8z"/>
	<path class="st2" d="M303.8,33.9h1.9v15.5h-1.9V33.9z"/>
	<path class="st2" d="M317.8,46.2c-0.3,1.9-2.3,3.3-4.7,3.3c-3.2,0-5.1-2.2-5.1-5.7s2-5.7,5.1-5.7s4.9,2.1,4.9,5.5v0.7h-8v0.1
		c-0.2,1.7,1.1,3.3,2.9,3.4c0.1,0,0.3,0,0.4,0c1.2,0.1,2.3-0.6,2.7-1.7H317.8z M310,42.8h6c0.1-1.6-1.1-3-2.7-3.1
		c-0.1,0-0.2,0-0.3,0C311.3,39.7,310,41.1,310,42.8z"/>
	<path class="st2" d="M324.2,38.1c2.3,0,4,1.3,4.1,3.2h-1.8c-0.1-1-1-1.7-2.4-1.7s-2.3,0.6-2.3,1.6c0,0.8,0.6,1.2,1.9,1.6l1.7,0.4
		c2.3,0.6,3.1,1.4,3.1,3c0,1.9-1.9,3.3-4.5,3.3c-2.4,0-4.2-1.3-4.4-3.3h1.9c0.2,1.1,1.1,1.7,2.6,1.7s2.5-0.6,2.5-1.6
		c0-0.8-0.5-1.2-1.7-1.5l-2-0.5c-2-0.5-2.9-1.5-2.9-3C320,39.4,321.7,38.1,324.2,38.1z"/>
	<path class="st2" d="M340,46.2c-0.3,1.9-2.3,3.3-4.7,3.3c-3.2,0-5.1-2.2-5.1-5.7s2-5.7,5.1-5.7s4.9,2.1,4.9,5.5v0.7h-8v0.1
		c-0.2,1.7,1.1,3.3,2.9,3.4c0.1,0,0.3,0,0.4,0c1.2,0.1,2.3-0.6,2.8-1.7H340z M332.1,42.8h6.1c0.1-1.6-1.1-3-2.7-3.1
		c-0.1,0-0.2,0-0.3,0C333.5,39.7,332.1,41.1,332.1,42.8C332.2,42.8,332.2,42.8,332.1,42.8L332.1,42.8z"/>
	<path class="st2" d="M351.7,46.2c-0.3,1.9-2.3,3.3-4.7,3.3c-3.2,0-5.1-2.2-5.1-5.7s2-5.7,5.1-5.7s4.9,2.1,4.9,5.5v0.7h-8v0.1
		c-0.2,1.7,1.1,3.3,2.9,3.4c0.1,0,0.3,0,0.4,0c1.2,0.1,2.3-0.6,2.8-1.7H351.7z M343.8,42.8h6.1c0.1-1.6-1.1-3-2.7-3.1
		c-0.1,0-0.2,0-0.3,0C345.2,39.7,343.8,41.1,343.8,42.8C343.8,42.8,343.8,42.8,343.8,42.8L343.8,42.8z"/>
	<path class="st2" d="M353.5,43.8c0-3.4,2-5.7,4.7-5.7c1.5-0.1,2.8,0.7,3.6,1.9l0,0v-6.1h1.9v15.5h-1.8v-1.9l0,0
		c-0.7,1.3-2.1,2.1-3.6,2C355.5,49.5,353.5,47.2,353.5,43.8z M355.4,43.8c0,2.5,1.3,4,3.2,4s3.2-1.6,3.2-4s-1.3-4-3.2-4
		S355.4,41.3,355.4,43.8L355.4,43.8z"/>
	<path class="st2" d="M132.6,52.3c-1.2-1.5-2.9-4.5-2.9-9.4s1.6-7.3,3-9.1h1.6c-0.9,1.1-2.7,4.1-2.7,9c-0.1,3.3,0.9,6.6,2.6,9.4
		L132.6,52.3z"/>
	<path class="st2" d="M141.4,33.6c2.8,0,5,1.9,5,4.2c0,1.7-0.8,3-3.4,5.7l-3.9,4l0,0h7.6v1.7h-10.3V48l5.5-5.8
		c2.1-2.2,2.6-3,2.6-4.3c-0.1-1.6-1.5-2.8-3.1-2.7c0,0,0,0,0,0c-1.7-0.1-3.1,1.2-3.2,2.9c0,0,0,0.1,0,0.1h-1.9
		c0.1-2.7,2.3-4.7,5-4.7C141.3,33.6,141.3,33.6,141.4,33.6z"/>
	<path class="st2" d="M154.3,33.6c2.8,0,5,1.9,5,4.2c0,1.7-0.8,3-3.4,5.7l-3.9,4l0,0h7.6v1.7h-10.3V48l5.5-5.8
		c2.1-2.2,2.6-3,2.6-4.3c-0.1-1.6-1.5-2.8-3.1-2.7c0,0,0,0,0,0c-1.7-0.1-3.1,1.2-3.2,2.9c0,0,0,0,0,0.1h-1.9c0.1-2.7,2.3-4.7,5-4.7
		C154.2,33.6,154.2,33.6,154.3,33.6z"/>
	<path class="st2" d="M172.3,43.8c0,3.4-1.9,5.7-4.7,5.7c-1.5,0.1-2.8-0.7-3.6-1.9l0,0v5.5h-1.9V38.2h1.8V40l0,0
		c0.8-1.2,2.2-2,3.6-1.9C170.4,38.1,172.3,40.4,172.3,43.8z M170.4,43.8c0-2.4-1.3-4-3.2-4s-3.2,1.6-3.2,4s1.3,4,3.2,4
		S170.4,46.2,170.4,43.8z"/>
	<path class="st2" d="M177.1,35.5v2.7h2.2v1.5h-2.2v6.6c0,1,0.4,1.5,1.4,1.5c0.3,0,0.5,0,0.8,0v1.6c-0.4,0.1-0.8,0.1-1.2,0.1
		c-2.1,0-2.9-0.8-2.9-3v-6.7h-1.7v-1.5h1.7v-2.7L177.1,35.5z"/>
	<path class="st2" d="M183.5,42.9c0-4.9-1.7-8-2.7-9h1.6c1.4,1.8,3,4.1,3,9.1c0.1,3.4-0.9,6.7-2.9,9.4h-1.6
		C182.6,49.6,183.6,46.3,183.5,42.9z"/>
	<path class="st3" d="M213.6,15.9c0,1.3,1.1,2.4,2.5,2.3c0,0,0.1,0,0.1,0c1.8,0,2.8-1.1,2.8-3V3.5h2v11.7c0,3.1-1.8,4.9-4.8,4.9
		c-2.7,0-4.6-1.7-4.6-4.2L213.6,15.9z"/>
	<path class="st3" d="M223.6,13.9c0-3.6,2.1-6,5.4-6s5.4,2.3,5.4,6s-2.1,6-5.4,6S223.6,17.5,223.6,13.9z M232.4,13.9
		c0-2.7-1.3-4.2-3.4-4.2s-3.4,1.6-3.4,4.2s1.3,4.2,3.4,4.2S232.4,16.6,232.4,13.9z"/>
	<path class="st3" d="M236.8,3.5h2V10l0,0c0.7-1.3,2.2-2.1,3.7-2c2.6,0,4.1,1.7,4.1,4.3v7.5h-2v-7.1c0-1.9-0.9-3-2.8-3
		c-1.7-0.1-3,1.2-3.1,2.9c0,0.1,0,0.3,0,0.4v6.7h-2L236.8,3.5z"/>
	<path class="st3" d="M249.5,8.1h1.8V10l0,0c0.7-1.3,2.2-2.1,3.7-2c2.6,0,4,1.6,4,4.3v7.5h-2v-7.2c0-1.9-0.9-2.9-2.7-2.9
		s-3,1.3-3,3.3v6.8h-2L249.5,8.1z"/>
	<path class="st3" d="M276.3,15.1h-6.5l-1.6,4.6h-2.1l6-16.2h2l6,16.2H278L276.3,15.1z M270.4,13.4h5.3L273.1,6H273L270.4,13.4z"/>
	<path class="st3" d="M292.6,13.9c0,3.6-2,6-5,6c-1.5,0.1-2.9-0.7-3.7-2l0,0v5.8h-2V8.1h1.9V10l0,0c0.8-1.3,2.3-2,3.8-2
		C290.6,8,292.6,10.3,292.6,13.9z M290.6,13.9c0-2.6-1.4-4.2-3.4-4.2s-3.4,1.7-3.4,4.2s1.4,4.2,3.4,4.2S290.6,16.5,290.6,13.9z"/>
	<path class="st3" d="M305.6,13.9c0,3.6-2,6-5,6c-1.5,0.1-2.9-0.7-3.7-2l0,0v5.8h-2V8.1h1.9V10l0,0c0.8-1.3,2.3-2,3.8-2
		C303.6,8,305.6,10.3,305.6,13.9z M303.6,13.9c0-2.6-1.4-4.2-3.4-4.2s-3.4,1.7-3.4,4.2s1.4,4.2,3.4,4.2S303.6,16.5,303.6,13.9z"/>
	<path class="st3" d="M308.1,3.5h2v16.2h-2V3.5z"/>
	<path class="st3" d="M322.7,16.4c-0.3,2-2.4,3.5-4.9,3.5c-3.3,0-5.4-2.3-5.4-5.9s2.1-6,5.3-6s5.1,2.2,5.1,5.7v0.7h-8.4v0.1
		c-0.2,1.8,1.2,3.4,3,3.6c0.1,0,0.3,0,0.4,0c1.3,0.1,2.4-0.6,2.9-1.8H322.7z M314.5,12.9h6.4c0.1-1.7-1.2-3.1-2.9-3.3
		c-0.1,0-0.2,0-0.3,0C315.9,9.6,314.5,11.1,314.5,12.9C314.4,12.9,314.4,12.9,314.5,12.9L314.5,12.9z"/>
	<path class="st3" d="M329.3,8c2.4,0,4.2,1.4,4.3,3.4h-1.9c-0.1-1.1-1.1-1.8-2.5-1.8s-2.4,0.7-2.4,1.7c0,0.8,0.6,1.3,2,1.6l1.8,0.4
		c2.4,0.6,3.2,1.4,3.2,3.1c0,2-1.9,3.4-4.7,3.4c-2.5,0-4.4-1.4-4.5-3.4h2c0.2,1.2,1.1,1.8,2.7,1.8s2.6-0.6,2.6-1.7
		c0-0.8-0.5-1.2-1.8-1.6l-2.1-0.6c-2.1-0.5-3.1-1.6-3.1-3.1C325,9.4,326.8,8,329.3,8z"/>
	<path class="st3" d="M345.9,16.4c-0.3,2-2.4,3.5-4.9,3.5c-3.3,0-5.4-2.3-5.4-5.9s2.1-6,5.3-6s5.1,2.2,5.1,5.7v0.7h-8.4v0.1
		c-0.2,1.8,1.2,3.4,3,3.6c0.1,0,0.3,0,0.4,0c1.3,0.2,2.5-0.6,3-1.8H345.9z M337.7,12.9h6.3c0.1-1.7-1.2-3.1-2.9-3.3
		c-0.1,0-0.2,0-0.3,0C339.1,9.7,337.7,11.1,337.7,12.9C337.7,12.9,337.7,12.9,337.7,12.9L337.7,12.9z"/>
	<path class="st3" d="M358,16.4c-0.3,2-2.4,3.5-4.9,3.5c-3.3,0-5.4-2.3-5.4-5.9s2.1-6,5.3-6s5.1,2.2,5.1,5.7v0.7h-8.4v0.1
		c-0.2,1.8,1.2,3.4,3,3.6c0.1,0,0.3,0,0.4,0c1.3,0.1,2.4-0.6,2.9-1.8H358z M349.8,12.9h6.4c0.1-1.7-1.2-3.1-2.9-3.3
		c-0.1,0-0.2,0-0.3,0C351.2,9.7,349.8,11.1,349.8,12.9C349.8,12.9,349.8,12.9,349.8,12.9L349.8,12.9z"/>
	<path class="st3" d="M359.9,13.9c0-3.6,2.1-6,5-6c1.5-0.1,3,0.7,3.7,2l0,0V3.5h2v16.2h-1.9v-2l0,0c-0.8,1.4-2.2,2.2-3.8,2.1
		C362,19.9,359.9,17.5,359.9,13.9z M361.9,13.9c0,2.6,1.4,4.2,3.4,4.2s3.4-1.7,3.4-4.2s-1.4-4.2-3.4-4.2S361.9,11.4,361.9,13.9z"/>
	<path class="st3" d="M127,22.5c-1.3-1.6-3.2-4.9-3.2-10.3s1.8-8,3.3-9.9h1.7c-1,1.2-2.9,4.5-2.9,9.9c-0.1,3.6,0.9,7.2,2.9,10.3
		L127,22.5z"/>
	<path class="st3" d="M136.6,2.1c3,0,5.4,2.1,5.4,4.6c0,1.9-0.9,3.3-3.7,6.2l-4.3,4.4l0,0h8.2v1.9h-11.2v-1.4l6-6.3
		c2.3-2.4,2.8-3.3,2.8-4.7c-0.1-1.7-1.6-3-3.4-2.9c0,0,0,0,0,0c-1.8-0.1-3.4,1.3-3.5,3.1c0,0.1,0,0.1,0,0.2h-2
		C131,4.3,133.4,2.1,136.6,2.1z"/>
	<path class="st3" d="M148.6,9.7h2c1.6,0.2,3.1-1,3.3-2.7c0-0.1,0-0.2,0-0.3c0-1.7-1.1-2.8-3.3-2.8c-1.7-0.2-3.3,1.1-3.4,2.8
		c0,0,0,0,0,0h-2c0.2-2.9,2.4-4.7,5.6-4.7c3,0,5.3,1.8,5.3,4.4c0,2-1.5,3.7-3.5,4l0,0c2.6,0.1,4.2,1.7,4.2,4.1c0,2.9-2.6,4.9-6,4.9
		c-3.5,0-5.8-2-6-4.8h2c0.2,1.7,1.6,2.9,3.9,2.9s3.9-1.3,3.9-3c0-2-1.5-3.2-3.9-3.2h-2.1L148.6,9.7z"/>
	<path class="st3" d="M170.9,13.2c0,3.7-2.1,6.2-5.2,6.2c-1.6,0.1-3.1-0.7-3.9-2.1l0,0v6h-2V7.1h1.9v2l0,0c0.8-1.3,2.3-2.1,3.9-2.1
		C168.8,7,170.9,9.4,170.9,13.2z M168.8,13.2c0-2.7-1.4-4.4-3.5-4.4s-3.5,1.8-3.5,4.4s1.4,4.4,3.5,4.4S168.8,15.9,168.8,13.2z"/>
	<path class="st3" d="M176.1,4.1v2.9h2.4v1.7h-2.4V16c0,1.1,0.5,1.6,1.5,1.6c0.3,0,0.6,0,0.9-0.1v1.7c-0.4,0.1-0.9,0.1-1.3,0.1
		c-2.2,0-3.1-0.9-3.1-3.3V8.8h-1.8V7.1h1.8V4.1H176.1z"/>
	<path class="st3" d="M183.1,12.2c0-5.4-1.9-8.7-2.9-9.9h1.7c1.5,1.9,3.3,4.4,3.3,9.9s-1.9,8.6-3.2,10.3h-1.8
		C182.2,19.4,183.2,15.9,183.1,12.2z"/>
	<path class="st0" d="M213.6,141.3c0.1,1.1,1,2,2.1,1.9c0,0,0,0,0.1,0c1.4,0,2.2-0.9,2.2-2.5V131h1.7v9.7c0,2.6-1.5,4-3.9,4
		c-2.2,0-3.8-1.4-3.8-3.4L213.6,141.3z"/>
	<path class="st0" d="M221.9,139.4c0-3.2,1.8-5.2,4.6-5.2s4.6,2,4.6,5.2s-1.8,5.2-4.6,5.2S221.9,142.6,221.9,139.4z M229.5,139.4
		c0-2.4-1.1-3.7-3-3.7s-3,1.4-3,3.7s1.1,3.7,3,3.7S229.5,141.8,229.5,139.4z"/>
	<path class="st0" d="M233.2,130.4h1.6v5.6h0.2c0.6-1.2,1.8-1.9,3.1-1.8c2.1,0,3.5,1.4,3.5,3.7v6.5h-1.6v-6.1c0-1.8-0.8-2.6-2.3-2.6
		c-1.4-0.1-2.7,0.9-2.8,2.4c0,0.2,0,0.3,0,0.5v5.9h-1.6L233.2,130.4z"/>
	<path class="st0" d="M244,134.4h1.5v1.6h0.1c0.5-1.2,1.7-1.9,3-1.8c2.2,0,3.5,1.3,3.5,3.7v6.5h-1.6v-6.1c0-1.8-0.8-2.6-2.4-2.6
		c-1.4-0.1-2.6,1-2.6,2.4c0,0.1,0,0.3,0,0.4v5.9H244V134.4z"/>
	<path class="st0" d="M267,140.6h-5.3l-1.4,3.8h-1.8l5-13.4h1.6l4.9,13.4h-1.8L267,140.6z M262.2,139.2h4.4l-2.1-6h-0.1L262.2,139.2
		z"/>
	<path class="st0" d="M280.9,139.4c0,3.1-1.7,5.2-4.2,5.2c-1.3,0.1-2.5-0.6-3.1-1.7h-0.1v4.8h-1.6v-13.3h1.5v1.7h0.1
		c0.6-1.2,1.9-1.9,3.2-1.9C279.2,134.2,280.9,136.3,280.9,139.4z M279.2,139.4c0-2.3-1.1-3.7-2.9-3.7s-3,1.4-3,3.7s1.1,3.7,3,3.7
		S279.2,141.8,279.2,139.4z"/>
	<path class="st0" d="M292,139.4c0,3.1-1.7,5.2-4.2,5.2c-1.3,0.1-2.5-0.6-3.1-1.7h-0.1v4.8h-1.6v-13.3h1.5v1.7h0.1
		c0.6-1.2,1.9-1.9,3.2-1.9C290.3,134.2,292,136.3,292,139.4z M290.4,139.4c0-2.3-1.1-3.7-2.9-3.7s-3,1.4-3,3.7s1.1,3.7,3,3.7
		S290.3,141.8,290.4,139.4L290.4,139.4z"/>
	<path class="st0" d="M294.1,130.4h1.6v14h-1.6V130.4z"/>
	<path class="st0" d="M306.5,141.8c-0.5,1.7-2,2.8-4.2,2.8c-2.8,0-4.5-2-4.5-5.2s1.8-5.2,4.5-5.2s4.4,1.9,4.4,5v0.6h-7.2v0.2
		c0.1,2,1.2,3.2,2.9,3.2c1.1,0.1,2.1-0.4,2.6-1.4L306.5,141.8z M299.4,138.6h5.6c0.1-1.5-0.9-2.8-2.4-2.9c-0.1,0-0.2,0-0.3,0
		c-1.6,0-2.9,1.3-2.9,2.8C299.4,138.5,299.4,138.6,299.4,138.6L299.4,138.6z"/>
	<path class="st0" d="M312.2,134.2c2.1,0,3.6,1,3.8,2.7h-1.6c-0.3-0.9-1.2-1.5-2.2-1.3c-1.2,0-2.1,0.6-2.1,1.5
		c0,0.7,0.6,1.1,1.7,1.4l1.5,0.4c1.9,0.4,2.8,1.3,2.8,2.7c0,1.8-1.7,3-4,3s-3.8-1.1-3.9-2.7h1.6c0.4,0.9,1.3,1.5,2.4,1.4
		c1.4,0,2.3-0.6,2.3-1.6c0-0.7-0.5-1.1-1.6-1.4l-1.7-0.4c-1.9-0.5-2.7-1.3-2.7-2.7C308.4,135.5,310,134.2,312.2,134.2z"/>
	<path class="st0" d="M326.4,141.8c-0.5,1.7-2,2.8-4.2,2.8c-2.8,0-4.5-2-4.5-5.2s1.8-5.2,4.5-5.2s4.4,1.9,4.4,5v0.6h-7.2v0.2
		c0.1,2,1.2,3.2,2.9,3.2c1.1,0.1,2.1-0.4,2.6-1.4L326.4,141.8z M319.3,138.6h5.5c0.1-1.5-0.9-2.8-2.4-2.9c-0.1,0-0.2,0-0.3,0
		C320.6,135.7,319.3,136.9,319.3,138.6C319.3,138.5,319.3,138.6,319.3,138.6L319.3,138.6z"/>
	<path class="st0" d="M336.8,141.8c-0.5,1.7-2,2.8-4.2,2.8c-2.8,0-4.5-2-4.5-5.2s1.8-5.2,4.5-5.2s4.4,1.9,4.4,5v0.6h-7.2v0.2
		c0.1,2,1.2,3.2,2.9,3.2c1.1,0.1,2.1-0.4,2.6-1.4L336.8,141.8z M329.7,138.6h5.5c0.1-1.5-0.9-2.8-2.4-2.9c-0.1,0-0.2,0-0.3,0
		C330.9,135.7,329.7,136.9,329.7,138.6C329.7,138.5,329.7,138.6,329.7,138.6L329.7,138.6z"/>
	<path class="st0" d="M338.4,139.4c0-3.1,1.7-5.2,4.2-5.2c1.3-0.1,2.5,0.6,3.1,1.8h0.1v-5.6h1.6v14H346v-1.6h-0.1
		c-0.7,1.1-1.9,1.8-3.2,1.8C340,144.6,338.4,142.6,338.4,139.4z M340,139.4c0,2.3,1.1,3.7,2.9,3.7s3-1.4,3-3.7s-1.1-3.7-3-3.7
		S340,137.1,340,139.4L340,139.4z"/>
	<path class="st0" d="M38.8,141.1c0.2,1.4,1.5,2.3,3.5,2.3s3.1-1,3.1-2.3c0-1.1-0.8-1.9-2.7-2.3l-1.7-0.4c-2.4-0.6-3.5-1.7-3.5-3.6
		c0-2.3,1.9-3.8,4.7-3.8c2.6,0,4.5,1.5,4.7,3.7h-1.7c-0.2-1.4-1.4-2.2-3-2.2s-3,0.9-3,2.2c0,1,0.7,1.6,2.6,2.1l1.4,0.4
		c2.8,0.7,3.9,1.8,3.9,3.7c0,2.5-1.9,4-5,4c-2.8,0-4.8-1.5-5-3.8L38.8,141.1z"/>
	<path class="st0" d="M49.4,144.6v-13.4h8.1v1.5h-6.5v4.6H57v1.5h-5.9v5.8L49.4,144.6z"/>
	<path class="st0" d="M69.7,131.2c2.4,0,4.3,1.9,4.3,4.3c0,2.4-1.9,4.3-4.3,4.3l0,0h-3.4v4.8h-1.7v-13.4H69.7z M66.3,138.4h3
		c1.9,0,3-1,3-2.8s-1.1-2.9-3-2.9h-3V138.4z"/>
	<path class="st0" d="M76.1,134.6h1.5v1.5h0.2c0.5-1.1,1.6-1.8,2.8-1.7c0.3,0,0.5,0,0.8,0v1.6c-0.3-0.1-0.7-0.1-1-0.1
		c-1.3-0.1-2.5,0.9-2.6,2.3c0,0.1,0,0.1,0,0.2v6.2h-1.6L76.1,134.6z"/>
	<path class="st0" d="M82,139.6c0-3.2,1.8-5.2,4.6-5.2s4.6,2,4.6,5.2s-1.8,5.2-4.6,5.2S82,142.8,82,139.6z M89.6,139.6
		c0-2.4-1.1-3.7-3-3.7s-3,1.4-3,3.7s1.1,3.7,3,3.7S89.6,142,89.6,139.6L89.6,139.6z"/>
	<path class="st0" d="M101.9,144.6v-11.9h-4.3v-1.5h10.3v1.5h-4.3v11.9L101.9,144.6z"/>
	<path class="st0" d="M116.5,142c-0.5,1.7-2,2.8-4.2,2.8c-2.8,0-4.5-2-4.5-5.2s1.8-5.2,4.5-5.2s4.3,1.9,4.3,5v0.6h-7.2v0.1
		c0.1,2,1.2,3.2,2.9,3.2c1.1,0.1,2.1-0.4,2.6-1.4L116.5,142z M109.4,138.8h5.5c0.1-1.5-0.9-2.8-2.4-2.9c-0.1,0-0.2,0-0.3,0
		C110.7,135.8,109.4,137.1,109.4,138.8C109.4,138.7,109.4,138.7,109.4,138.8L109.4,138.8z"/>
	<path class="st0" d="M121.7,140.8l-2.4,3.8h-1.8l3.4-5l-3.5-5h1.9l2.4,3.7h0.2l2.3-3.7h1.8l-3.4,4.9l3.4,5.1h-1.9l-2.4-3.8
		L121.7,140.8z"/>
	<path class="st0" d="M130,132v2.6h2.2v1.3H130v5.7c0,1.2,0.4,1.7,1.5,1.7c0.2,0,0.5,0,0.7,0v1.3c-0.3,0.1-0.6,0.1-0.9,0.1
		c-2.1,0-2.9-0.8-2.9-2.7V136h-1.6v-1.3h1.6V132H130z"/>
	<path class="st0" d="M141.7,147.2c-1.7-2.4-2.6-5.2-2.5-8.1c-0.1-2.8,0.8-5.6,2.6-7.8h1.4c-1.4,1.6-2.3,4.8-2.3,7.8
		c0,2.9,0.8,5.7,2.3,8.1H141.7z"/>
	<path class="st0" d="M148.5,133.1h-0.1l-3.4,2.5v-1.8l3.6-2.6h1.7v13.4h-1.7L148.5,133.1z"/>
	<path class="st0" d="M153.6,141.4h1.7c0.3,1.2,1.4,2,2.7,2c2.2,0,3.4-1.9,3.5-5.5h-0.1c-0.7,1.3-2.1,2.1-3.6,2.1
		c-2.4,0.1-4.3-1.8-4.4-4.2c0-0.1,0-0.2,0-0.3c-0.1-2.5,1.9-4.5,4.3-4.6c0.1,0,0.2,0,0.4,0c2,0,3.7,1.2,4.4,3
		c0.5,1.2,0.7,2.5,0.6,3.7c0,4.6-1.9,7.2-5.2,7.2C155.8,145,154,143.5,153.6,141.4z M161.1,135.5c0-1.7-1.3-3-3-3.1s-3,1.3-3.1,3
		s1.3,3,3,3.1S161.1,137.2,161.1,135.5z"/>
	<path class="st0" d="M174.4,139.6c0,3.1-1.7,5.2-4.2,5.2c-1.3,0.1-2.5-0.6-3.1-1.7h-0.1v4.8h-1.6v-13.3h1.5v1.7h0.1
		c0.6-1.2,1.9-1.9,3.2-1.9C172.8,134.4,174.4,136.5,174.4,139.6z M172.8,139.6c0-2.3-1.1-3.7-2.9-3.7s-3,1.4-3,3.7s1.1,3.7,2.9,3.7
		S172.8,141.9,172.8,139.6L172.8,139.6z"/>
	<path class="st0" d="M178.7,132v2.6h2.3v1.3h-2.2v5.7c0,1.2,0.4,1.7,1.5,1.7c0.2,0,0.5,0,0.7,0v1.3c-0.3,0.1-0.6,0.1-0.9,0.1
		c-2.1,0-2.9-0.8-2.9-2.7V136h-1.6v-1.3h1.6V132H178.7z"/>
	<path class="st0" d="M184.8,139c0-3-0.9-6.2-2.3-7.8h1.4c1.8,2.2,2.7,5,2.6,7.8c0.1,2.9-0.8,5.8-2.5,8.1h-1.4
		C184,144.7,184.8,141.9,184.8,139z"/>
	<line class="st4" x1="211.5" y1="122" x2="388" y2="122"/>
	<path class="st1" d="M213.5,172.6c0,1,0.9,1.8,1.9,1.8c0,0,0,0,0.1,0c1.4,0,2.1-0.8,2.1-2.4v-9.1h1.6v9.1c0,2.4-1.4,3.8-3.7,3.8
		c-2.1,0-3.6-1.3-3.6-3.3L213.5,172.6z"/>
	<path class="st1" d="M221.3,170.8c0-3,1.7-4.9,4.4-4.9s4.4,1.9,4.4,4.9s-1.7,4.9-4.4,4.9S221.3,173.9,221.3,170.8z M228.5,170.8
		c0-2.2-1-3.5-2.8-3.5s-2.8,1.3-2.8,3.5s1,3.5,2.8,3.5S228.5,173.1,228.5,170.8L228.5,170.8z"/>
	<path class="st1" d="M232.1,162.3h1.5v5.3h0.1c0.5-1.1,1.7-1.8,2.9-1.7c2,0,3.3,1.3,3.3,3.5v6.1h-1.5v-5.8c0-1.7-0.8-2.5-2.2-2.5
		c-1.3-0.1-2.5,0.9-2.6,2.3c0,0.1,0,0.3,0,0.4v5.6h-1.5V162.3z"/>
	<path class="st1" d="M242.3,166.1h1.4v1.5h0.1c0.5-1.1,1.6-1.8,2.9-1.7c2.1,0,3.3,1.3,3.3,3.5v6.1h-1.5v-5.8c0-1.7-0.7-2.5-2.2-2.5
		c-1.3-0.1-2.4,1-2.5,2.3c0,0.1,0,0.3,0,0.4v5.6h-1.5L242.3,166.1z"/>
	<path class="st1" d="M264.2,171.9h-5l-1.3,3.6h-1.7l4.7-12.7h1.6l4.7,12.7h-1.7L264.2,171.9z M259.6,170.6h4.1l-2-5.7h-0.1
		L259.6,170.6z"/>
	<path class="st1" d="M277.3,170.8c0,3-1.6,4.9-4,4.9c-1.2,0.1-2.4-0.5-3-1.6h-0.1v4.6h-1.5v-12.6h1.4v1.6h0.1
		c0.6-1.1,1.8-1.8,3-1.8C275.7,165.9,277.3,167.8,277.3,170.8z M275.7,170.8c0-2.2-1-3.5-2.8-3.5s-2.8,1.4-2.8,3.5s1.1,3.5,2.8,3.5
		S275.7,173,275.7,170.8L275.7,170.8z"/>
	<path class="st1" d="M287.8,170.8c0,3-1.6,4.9-4,4.9c-1.2,0.1-2.4-0.5-3-1.6h-0.1v4.6h-1.5v-12.6h1.4v1.6h0.1
		c0.6-1.1,1.8-1.8,3-1.8C286.3,165.9,287.8,167.8,287.8,170.8z M286.3,170.8c0-2.2-1-3.5-2.8-3.5s-2.8,1.4-2.8,3.5s1.1,3.5,2.8,3.5
		S286.3,173,286.3,170.8z"/>
	<path class="st1" d="M289.9,162.3h1.5v13.2h-1.5V162.3z"/>
	<path class="st1" d="M301.7,173.1c-0.5,1.6-1.9,2.6-4,2.6c-2.6,0-4.3-1.9-4.3-4.9s1.7-4.9,4.3-4.9s4.1,1.8,4.1,4.8v0.6H295v0.1
		c0.1,1.9,1.1,3.1,2.7,3.1c1,0.1,2-0.4,2.5-1.3H301.7z M295,170h5.2c0.1-1.4-0.9-2.6-2.3-2.8c-0.1,0-0.2,0-0.2,0
		C296.2,167.2,295,168.4,295,170C295,169.9,295,170,295,170z"/>
	<path class="st1" d="M307,165.9c2,0,3.4,1,3.6,2.5h-1.5c-0.3-0.9-1.2-1.4-2.1-1.3c-1.1,0-2,0.6-2,1.4c0,0.6,0.5,1.1,1.6,1.3
		l1.5,0.4c1.8,0.4,2.6,1.2,2.6,2.6c0,1.7-1.6,2.9-3.8,2.9s-3.6-1-3.7-2.6h1.6c0.4,0.9,1.3,1.4,2.2,1.3c1.3,0,2.2-0.6,2.2-1.5
		c0-0.6-0.5-1.1-1.5-1.3l-1.6-0.4c-1.8-0.4-2.6-1.2-2.6-2.6C303.5,167.1,305,165.9,307,165.9z"/>
	<path class="st1" d="M320.5,173.1c-0.5,1.6-1.9,2.6-4,2.6c-2.6,0-4.3-1.9-4.3-4.9s1.7-4.9,4.3-4.9s4.1,1.8,4.1,4.8v0.6h-6.8v0.1
		c0.1,1.9,1.1,3.1,2.7,3.1c1,0.1,2-0.4,2.5-1.3H320.5z M313.8,170h5.2c0.1-1.4-0.9-2.6-2.3-2.8c-0.1,0-0.2,0-0.2,0
		C315,167.2,313.8,168.5,313.8,170C313.8,170,313.8,170,313.8,170z"/>
	<path class="st1" d="M330.4,173.1c-0.5,1.6-1.9,2.6-4,2.6c-2.6,0-4.3-1.9-4.3-4.9s1.7-4.9,4.3-4.9s4.1,1.8,4.1,4.8v0.6h-6.8v0.1
		c0.1,1.9,1.1,3.1,2.7,3.1c1,0.1,2-0.4,2.5-1.3H330.4z M323.6,170h5.2c0.1-1.4-0.9-2.6-2.3-2.8c-0.1,0-0.2,0-0.2,0
		C324.8,167.2,323.6,168.5,323.6,170C323.6,170,323.6,170,323.6,170L323.6,170z"/>
	<path class="st1" d="M331.9,170.8c0-3,1.6-4.9,4-4.9c1.2-0.1,2.4,0.6,3,1.7h0.1v-5.3h1.5v13.2h-1.4V174H339c-0.6,1.1-1.8,1.7-3,1.7
		C333.5,175.7,331.9,173.8,331.9,170.8z M333.5,170.8c0,2.2,1,3.5,2.8,3.5s2.8-1.4,2.8-3.5s-1.1-3.5-2.8-3.5
		S333.5,168.6,333.5,170.8z"/>
	<path class="st1" d="M144.1,177.7c-1.6-2.2-2.5-4.9-2.4-7.7c-0.1-2.7,0.8-5.3,2.5-7.4h1.3c-1.3,1.5-2.2,4.6-2.2,7.4
		c0,2.7,0.7,5.4,2.2,7.7H144.1z"/>
	<path class="st1" d="M150.5,164.3h-0.1l-3.2,2.3V165l3.4-2.4h1.6v12.7h-1.6L150.5,164.3z"/>
	<path class="st1" d="M175.1,170.5c0,3-1.6,4.9-4,4.9c-1.2,0.1-2.4-0.5-3-1.6H168v4.6h-1.5v-12.6h1.5v1.6h0.1c0.6-1.1,1.8-1.8,3-1.8
		C173.6,165.6,175.1,167.5,175.1,170.5z M173.6,170.5c0-2.2-1-3.5-2.8-3.5s-2.8,1.4-2.8,3.5s1.1,3.5,2.8,3.5
		S173.6,172.7,173.6,170.5z"/>
	<path class="st1" d="M179.2,163.3v2.4h2.1v1.2h-2.1v5.4c0,1.1,0.4,1.6,1.4,1.6c0.2,0,0.5,0,0.7,0v1.3c-0.3,0.1-0.6,0.1-0.9,0.1
		c-2,0-2.7-0.7-2.7-2.5V167h-1.5v-1.3h1.5v-2.4L179.2,163.3z"/>
	<path class="st1" d="M185,170c0-2.9-0.9-5.9-2.2-7.4h1.3c1.7,2.1,2.6,4.7,2.5,7.4c0.1,2.8-0.8,5.5-2.4,7.7h-1.4
		C184.3,175.4,185,172.7,185,170z"/>
	<path class="st2" d="M213.3,200.4c0,1,0.9,1.7,1.8,1.7c0,0,0.1,0,0.1,0c1.3,0,2-0.8,2-2.2v-8.6h1.5v8.6c0.2,1.8-1.1,3.4-2.9,3.6
		c-0.2,0-0.4,0-0.6,0c-1.7,0.2-3.2-1.1-3.4-2.8c0-0.1,0-0.2,0-0.3L213.3,200.4z"/>
	<path class="st2" d="M220.8,198.7c0-2.9,1.6-4.6,4.1-4.6s4.1,1.8,4.1,4.6s-1.6,4.6-4.1,4.6S220.8,201.6,220.8,198.7z M227.6,198.7
		c0-2.1-1-3.3-2.6-3.3s-2.6,1.2-2.6,3.3s1,3.4,2.6,3.4S227.6,200.8,227.6,198.7L227.6,198.7z"/>
	<path class="st2" d="M231,190.7h1.4v5h0.1c0.5-1,1.6-1.7,2.8-1.6c1.9,0,3.1,1.2,3.1,3.3v5.8H237v-5.4c0-1.6-0.7-2.4-2.1-2.4
		c-1.3-0.1-2.4,0.8-2.5,2.1c0,0.1,0,0.3,0,0.4v5.3H231V190.7z"/>
	<path class="st2" d="M240.6,194.2h1.4v1.4h0.1c0.5-1,1.6-1.7,2.7-1.6c2,0,3.1,1.2,3.1,3.3v5.8h-1.4v-5.4c0-1.6-0.7-2.4-2.1-2.4
		c-1.3-0.1-2.3,0.9-2.4,2.2c0,0.1,0,0.2,0,0.3v5.3h-1.5V194.2z"/>
	<path class="st2" d="M261.3,199.8h-4.8l-1.2,3.4h-1.6l4.4-12h1.5l4.4,12h-1.6L261.3,199.8z M257,198.5h3.9l-1.9-5.3h-0.1L257,198.5
		z"/>
	<path class="st2" d="M273.7,198.7c0,2.8-1.5,4.6-3.8,4.6c-1.1,0.1-2.2-0.5-2.8-1.5H267v4.3h-1.4v-11.9h1.4v1.5h0.1
		c0.6-1,1.7-1.7,2.9-1.6C272.2,194.1,273.7,195.9,273.7,198.7z M272.2,198.7c0-2.1-1-3.3-2.6-3.3s-2.6,1.3-2.6,3.3s1,3.4,2.6,3.4
		S272.2,200.8,272.2,198.7z"/>
	<path class="st2" d="M283.7,198.7c0,2.8-1.5,4.6-3.8,4.6c-1.1,0.1-2.2-0.5-2.8-1.5H277v4.3h-1.4v-11.9h1.4v1.5h0.1
		c0.6-1,1.7-1.7,2.9-1.6C282.2,194.1,283.7,195.9,283.7,198.7z M282.2,198.7c0-2.1-1-3.3-2.6-3.3s-2.6,1.3-2.6,3.3s1,3.4,2.6,3.4
		S282.2,200.8,282.2,198.7z"/>
	<path class="st2" d="M285.6,190.7h1.4v12.5h-1.4L285.6,190.7z"/>
	<path class="st2" d="M296.8,200.9c-0.5,1.6-2.1,2.6-3.8,2.5c-2.5,0-4-1.8-4-4.6s1.6-4.6,4-4.6s3.9,1.7,3.9,4.5v0.6h-6.5v0.1
		c0.1,1.8,1.1,2.9,2.6,2.9c0.9,0.1,1.9-0.4,2.3-1.2L296.8,200.9z M290.5,198h4.9c0.1-1.3-0.9-2.5-2.2-2.6c-0.1,0-0.1,0-0.2,0
		C291.6,195.3,290.5,196.5,290.5,198C290.5,197.9,290.5,198,290.5,198L290.5,198z"/>
	<path class="st2" d="M301.9,194.1c1.9,0,3.2,0.9,3.4,2.4h-1.4c-0.3-0.8-1.1-1.3-2-1.2c-1.1,0-1.9,0.5-1.9,1.3c0,0.6,0.5,1,1.5,1.2
		l1.4,0.3c1.7,0.4,2.5,1.1,2.5,2.4c0,1.6-1.5,2.7-3.6,2.7s-3.4-1-3.5-2.4h1.5c0.3,0.8,1.2,1.4,2.1,1.2c1.2,0,2.1-0.6,2.1-1.4
		c0-0.6-0.5-1-1.4-1.3l-1.5-0.4c-1.7-0.4-2.4-1.1-2.4-2.4C298.5,195.2,300,194.1,301.9,194.1z"/>
	<path class="st2" d="M314.6,200.9c-0.5,1.6-2.1,2.6-3.8,2.5c-2.5,0-4-1.8-4-4.6s1.6-4.6,4-4.6s3.9,1.7,3.9,4.5v0.6h-6.5v0.1
		c0.1,1.8,1.1,2.9,2.6,2.9c0.9,0.1,1.9-0.4,2.3-1.2L314.6,200.9z M308.3,198h4.9c0.1-1.3-0.9-2.5-2.2-2.6c-0.1,0-0.1,0-0.2,0
		C309.4,195.3,308.3,196.5,308.3,198C308.3,197.9,308.3,198,308.3,198L308.3,198z"/>
	<path class="st2" d="M323.9,200.9c-0.5,1.6-2.1,2.6-3.8,2.5c-2.5,0-4-1.8-4-4.6s1.6-4.6,4-4.6s3.9,1.7,3.9,4.5v0.6h-6.5v0.1
		c0.1,1.8,1.1,2.9,2.6,2.9c0.9,0.1,1.9-0.4,2.3-1.2L323.9,200.9z M317.6,198h4.9c0.1-1.3-0.9-2.5-2.2-2.6c-0.1,0-0.1,0-0.2,0
		C318.7,195.3,317.6,196.5,317.6,198C317.6,197.9,317.6,198,317.6,198L317.6,198z"/>
	<path class="st2" d="M325.4,198.7c0-2.8,1.5-4.6,3.8-4.6c1.2,0,2.2,0.6,2.8,1.6h0.1v-5h1.4v12.5h-1.4v-1.4h-0.1
		c-0.6,1-1.7,1.6-2.9,1.6C326.9,203.3,325.4,201.5,325.4,198.7z M326.9,198.7c0,2.1,1,3.4,2.6,3.4s2.6-1.3,2.6-3.4s-1-3.3-2.6-3.3
		S326.9,196.6,326.9,198.7z"/>
	<path class="st2" d="M147.6,205.7c-1.5-2.1-2.3-4.7-2.2-7.3c-0.1-2.5,0.7-5,2.3-7h1.2c-1.2,1.4-2.1,4.3-2.1,7c0,2.6,0.7,5.1,2,7.3
		H147.6z"/>
	<path class="st2" d="M153.7,193h-0.1l-3.1,2.2v-1.6l3.2-2.3h1.5v12h-1.5V193z"/>
	<path class="st2" d="M164.3,192.8v-0.1h-6.4v-1.3h7.9v1.4l-5.3,10.6h-1.6L164.3,192.8z"/>
	<path class="st2" d="M175.8,198.9c0,2.8-1.5,4.6-3.8,4.6c-1.1,0.1-2.2-0.5-2.8-1.5h-0.1v4.3h-1.4v-11.9h1.3v1.5h0.1
		c0.6-1,1.7-1.7,2.9-1.6C174.3,194.2,175.8,196.1,175.8,198.9z M174.3,198.9c0-2.1-1-3.3-2.6-3.3s-2.6,1.3-2.6,3.3s1,3.4,2.6,3.4
		S174.3,201,174.3,198.9z"/>
	<path class="st2" d="M179.7,192.1v2.3h2v1.2h-2v5.1c0,1.1,0.4,1.5,1.3,1.5c0.2,0,0.4,0,0.7,0v1.2c-0.3,0.1-0.6,0.1-0.8,0.1
		c-1.9,0-2.6-0.7-2.6-2.4v-5.5h-1.4v-1.2h1.4v-2.3L179.7,192.1z"/>
	<path class="st2" d="M185.2,198.4c0-2.7-0.9-5.6-2.1-7h1.2c1.6,2,2.4,4.5,2.3,7c0.1,2.6-0.7,5.2-2.2,7.3h-1.3
		C184.5,203.5,185.2,200.9,185.2,198.4z"/>
	<path class="st3" d="M213.2,228.7c0,0.9,0.8,1.6,1.7,1.6c0,0,0.1,0,0.1,0c1.2,0,1.9-0.7,1.9-2.1V220h1.4v8.1c0.2,1.7-1,3.2-2.7,3.4
		c-0.2,0-0.4,0-0.6,0c-1.6,0.2-3-1-3.2-2.6c0-0.1,0-0.2,0-0.3L213.2,228.7z"/>
	<path class="st3" d="M220.3,227.1c0-2.7,1.5-4.4,3.9-4.4s3.9,1.6,3.9,4.4s-1.5,4.4-3.9,4.4S220.3,229.8,220.3,227.1z M226.7,227.1
		c0-2-0.9-3.1-2.5-3.1s-2.5,1.1-2.5,3.1s0.9,3.1,2.5,3.1S226.7,229.1,226.7,227.1L226.7,227.1z"/>
	<path class="st3" d="M229.9,219.5h1.4v4.7h0.1c0.5-1,1.5-1.6,2.6-1.5c1.5-0.1,2.8,1.1,2.9,2.6c0,0.2,0,0.3,0,0.5v5.4h-1.4v-5.1
		c0-1.5-0.7-2.2-1.9-2.2c-1.2-0.1-2.2,0.8-2.3,2c0,0.1,0,0.3,0,0.4v5h-1.4L229.9,219.5z"/>
	<path class="st3" d="M239.1,222.9h1.3v1.3h0.1c0.4-1,1.5-1.6,2.5-1.5c1.9,0,3,1.1,3,3.1v5.4h-1.4v-5.1c0-1.5-0.6-2.2-2-2.2
		c-1.2,0-2.2,0.9-2.2,2.1c0,0.1,0,0.2,0,0.3v5h-1.4L239.1,222.9z"/>
	<path class="st3" d="M258.7,228.1h-4.5l-1.2,3.2h-1.5l4.2-11.3h1.4l4.2,11.3h-1.5L258.7,228.1z M254.6,226.9h3.7l-1.8-5h-0.1
		L254.6,226.9z"/>
	<path class="st3" d="M270.4,227.1c0,2.6-1.4,4.4-3.5,4.4c-1.1,0.1-2.1-0.5-2.6-1.4h-0.1v4.1h-1.4v-11.2h1.3v1.4h0.1
		c0.5-1,1.6-1.6,2.7-1.6C269,222.7,270.4,224.4,270.4,227.1z M269,227.1c0-2-0.9-3.1-2.5-3.1s-2.5,1.2-2.5,3.1s1,3.1,2.5,3.1
		S269,229.1,269,227.1L269,227.1z"/>
	<path class="st3" d="M279.9,227.1c0,2.6-1.4,4.4-3.5,4.4c-1.1,0.1-2.1-0.5-2.6-1.4h-0.1v4.1h-1.4v-11.2h1.3v1.4h0.1
		c0.5-1,1.6-1.6,2.7-1.6C278.5,222.7,279.9,224.4,279.9,227.1z M278.5,227.1c0-2-0.9-3.1-2.5-3.1s-2.5,1.2-2.5,3.1s1,3.1,2.5,3.1
		S278.5,229.1,278.5,227.1z"/>
	<path class="st3" d="M281.8,219.5h1.4v11.8h-1.4V219.5z"/>
	<path class="st3" d="M292.3,229.1c-0.5,1.5-2,2.5-3.5,2.3c-2.3,0-3.8-1.7-3.8-4.4s1.5-4.4,3.8-4.4s3.7,1.6,3.7,4.2v0.5h-6.1v0.1
		c0.1,1.7,1,2.7,2.4,2.7c0.9,0.1,1.8-0.3,2.2-1.1H292.3z M286.3,226.4h4.7c0.1-1.2-0.8-2.4-2.1-2.5c-0.1,0-0.1,0-0.2,0
		C287.4,223.9,286.4,225,286.3,226.4C286.4,226.4,286.4,226.4,286.3,226.4L286.3,226.4z"/>
	<path class="st3" d="M297.2,222.7c1.8,0,3,0.9,3.2,2.3H299c-0.3-0.8-1.1-1.2-1.9-1.1c-1,0-1.8,0.5-1.8,1.3c0,0.6,0.5,0.9,1.5,1.2
		l1.3,0.3c1.6,0.4,2.4,1.1,2.4,2.3c0,1.5-1.5,2.6-3.4,2.6s-3.2-0.9-3.3-2.3h1.4c0.3,0.8,1.1,1.3,2,1.2c1.1,0,2-0.5,2-1.3
		c0-0.6-0.4-1-1.3-1.2l-1.5-0.4c-1.6-0.4-2.3-1.1-2.3-2.3C294,223.8,295.4,222.7,297.2,222.7z"/>
	<path class="st3" d="M309.2,229.1c-0.5,1.5-2,2.5-3.5,2.3c-2.3,0-3.8-1.7-3.8-4.4s1.5-4.4,3.8-4.4s3.7,1.6,3.7,4.2v0.5h-6.1v0.1
		c0.1,1.7,1,2.7,2.4,2.7c0.9,0.1,1.8-0.3,2.2-1.1H309.2z M303.2,226.4h4.6c0.1-1.2-0.8-2.4-2.1-2.5c-0.1,0-0.1,0-0.2,0
		C304.3,223.9,303.2,225,303.2,226.4C303.3,226.4,303.3,226.4,303.2,226.4L303.2,226.4z"/>
	<path class="st3" d="M318.1,229.1c-0.5,1.5-2,2.5-3.5,2.3c-2.3,0-3.8-1.7-3.8-4.4s1.5-4.4,3.8-4.4s3.7,1.6,3.7,4.2v0.5h-6.1v0.1
		c0.1,1.7,1,2.7,2.4,2.7c0.9,0.1,1.8-0.3,2.2-1.1H318.1z M312.1,226.4h4.6c0.1-1.2-0.8-2.4-2.1-2.5c-0.1,0-0.1,0-0.2,0
		C313.1,223.9,312.1,225,312.1,226.4C312.1,226.4,312.1,226.4,312.1,226.4L312.1,226.4z"/>
	<path class="st3" d="M319.5,227.1c0-2.6,1.4-4.4,3.5-4.4c1.1,0,2.1,0.5,2.6,1.5h0.1v-4.7h1.4v11.8h-1.3V230h-0.1
		c-0.6,1-1.6,1.5-2.7,1.5C320.9,231.4,319.5,229.7,319.5,227.1z M320.9,227.1c0,2,0.9,3.1,2.5,3.1s2.5-1.2,2.5-3.1s-1-3.1-2.5-3.1
		S320.9,225.1,320.9,227.1z"/>
	<path class="st3" d="M148.6,233.1c-1.4-2-2.2-4.4-2.1-6.9c-0.1-2.4,0.7-4.7,2.2-6.6h1.1c-1.3,1.9-2,4.2-1.9,6.6
		c0,2.4,0.7,4.8,1.9,6.9H148.6z"/>
	<path class="st3" d="M154.4,221.3h-0.1l-2.9,2.1v-1.5l3-2.2h1.4V231h-1.4V221.3z"/>
	<path class="st3" d="M159.1,228.7c-0.4-1-0.6-2.1-0.6-3.1c0-3.9,1.6-6.1,4.3-6.1c1.8-0.1,3.4,1.2,3.7,2.9h-1.4
		c-0.3-1-1.2-1.7-2.3-1.7c-1.8,0-2.9,1.6-3,4.6h0.1c0.6-1.1,1.7-1.8,3-1.7c2-0.1,3.7,1.5,3.7,3.5c0,0.1,0,0.2,0,0.2
		c0.1,2.1-1.6,3.8-3.7,3.9c-0.1,0-0.2,0-0.3,0C161.1,231.2,159.7,230.2,159.1,228.7z M165.4,227.4c0-1.4-1.1-2.6-2.6-2.6
		s-2.6,1.1-2.6,2.6s1.1,2.6,2.6,2.6S165.4,228.8,165.4,227.4z"/>
	<path class="st3" d="M176.4,226.8c0,2.6-1.4,4.4-3.6,4.4c-1.1,0.1-2.1-0.5-2.6-1.4h-0.1v4.1h-1.4v-11.2h1.3v1.4h0.1
		c0.5-1,1.6-1.6,2.7-1.6C175,222.4,176.4,224.1,176.4,226.8z M175,226.8c0-2-0.9-3.1-2.5-3.1s-2.5,1.2-2.5,3.1s1,3.1,2.5,3.1
		S175,228.7,175,226.8L175,226.8z"/>
	<path class="st3" d="M180.1,220.4v2.2h1.9v1.1h-1.9v4.8c0,1,0.4,1.4,1.2,1.4c0.2,0,0.4,0,0.6,0v1.1c-0.3,0-0.5,0.1-0.8,0.1
		c-1.7,0-2.4-0.6-2.4-2.2v-5.1h-1.4v-1.1h1.4v-2.2L180.1,220.4z"/>
	<path class="st3" d="M185.3,226.3c0.1-2.3-0.6-4.6-1.9-6.6h1.1c1.5,1.9,2.3,4.2,2.2,6.6c0.1,2.5-0.7,4.9-2.1,6.9h-1.2
		C184.7,231.1,185.3,228.7,185.3,226.3z"/>
</g>
<path class="st1" d="M161.7,168.6v-0.1c1.3-0.3,2.2-1.5,2.1-2.8c0-2-1.7-3.4-4.1-3.4s-4.1,1.4-4.1,3.4c0,1.3,0.8,2.5,2.1,2.8v0.1
	c-1.6,0.3-2.7,1.6-2.6,3.2c0,2.2,1.9,3.7,4.6,3.7c2.7,0,4.6-1.5,4.6-3.7C164.4,170.3,163.3,168.9,161.7,168.6z M157.3,165.8
	c0-1.3,1-2.2,2.5-2.2c1.5,0,2.5,0.9,2.5,2.2c0,1.3-1,2.2-2.5,2.2C158.3,167.9,157.3,167.1,157.3,165.8z M159.8,174.2
	c-1.8,0-3-1-3-2.5s1.2-2.5,3-2.5s3,1,3,2.5S161.5,174.2,159.8,174.2z"/>
</svg>
